# xmcd CD database file
#
# Track frame offsets:
#	183
#	15908
#	28883
#	39533
#	52668
#	66570
#	78525
#	96853
#	110388
#	124923
#	135638
#	149323
#	163378
#	177870
#	188233
#	203348
#	220948
#	237398
#	252585
#	270803
#	286785
#	304075
#	316003
#	336893
#
# Disc length: 4637 seconds
#
# Revision: 2
# Processed by: cddbd v1.5.2PL0 Copyright (c) Steve Scherf et al.
# Submitted via: CDex 1.70beta2
#
DISCID=55121b18
DTITLE=Richard Anthony - Le Sirop Thyphon
DYEAR=1993
DGENRE=Chanson
TTITLE0=Le Sirop Thyphon (Lily The Pink) (2-1969)
TTITLE1=La Fille D'ipanema (The Girl From Ipanema) (3-1969)
TTITLE2=Daisy (4-1969)
TTITLE3=Etranger Dans La Nuit (Strangers In The Night) (4-1969)
TTITLE4=Les Petits Cochons (Breakfast On Pluto) (5-1969)
TTITLE5=Quand Tu N'es Pas Là (Esta tarde Vi llover) (5-1969)
TTITLE6=L'an 2005 (In The 2525) (6-1969)
TTITLE7=Regarde Bien Sous Ton Balcon (Make Me An Island) (6-1969)
TTITLE8=Les Petits Pavés (5-1969)
TTITLE9=Bien L'bonjour (Gruezi Wohl,Frau Stirnmaal) (12-1969)
TTITLE10=Seul Sous La Pluie (Someone's Love) (12-1969)
TTITLE11=L'arche De Noé (L'Arca Di Noè) (2--1970)
TTITLE12=Na Na He  He L'espoir (na Na Hey Hey Kiss Him Goodbye) (2-1970)
TTITLE13=La Bulle De Savon (Come On In) (5-1970)
TTITLE14=Il Pleut Des Larmes (La Nave Del Olvido) (5-1970)
TTITLE15=Senora La Duena (Lady D'Arbanville) (9-1970)
TTITLE16=Les Roses Bleues (9-1970)
TTITLE17=Johnny Mc Guire (9-1970)
TTITLE18=Les Pieds Sur Terre (Going Back West) (9-1970)
TTITLE19=Neige (Rainbow) (9-1970)
TTITLE20=Bien Assez Tôt, Bien Assez Vite (9-1970)
TTITLE21=Les Moulins De Mon Coeur (9-1970)
TTITLE22=Un Soleil, Une Lune (9-1970)
TTITLE23=Un Charmant Bambin
EXTD=YEAR: 1993
EXTT0=
EXTT1=
EXTT2=
EXTT3=
EXTT4=
EXTT5=
EXTT6=
EXTT7=
EXTT8=
EXTT9=
EXTT10=
EXTT11=
EXTT12=
EXTT13=
EXTT14=
EXTT15=
EXTT16=
EXTT17=
EXTT18=
EXTT19=
EXTT20=
EXTT21=
EXTT22=
EXTT23=
PLAYORDER=
